{
  "accessors": [
    {
      "bufferView": 3,
      "componentType": 5126,
      "count": 2905,
      "max": [
        0.42802196741104126,
        0.7628117203712463,
        2.318526029586792
      ],
      "min": [
        -0.46381425857543945,
        -0.8984208703041077,
        -2.3390841484069824
      ],
      "type": "VEC3"
    },
    {
      "bufferView": 3,
      "byteOffset": 34860,
      "componentType": 5126,
      "count": 2905,
      "max": [
        1.0,
        0.9995396137237549,
        0.9999927282333374
      ],
      "min": [
        -1.0,
        -0.9999964833259583,
        -0.9881386756896973
      ],
      "type": "VEC3"
    },
    {
      "bufferView": 2,
      "componentType": 5126,
      "count": 2905,
      "max": [
        0.9779090881347656,
        0.9799928069114685
      ],
      "min": [
        0.0,
        0.0
      ],
      "type": "VEC2"
    },
    {
      "bufferView": 1,
      "componentType": 5125,
      "count": 4446,
      "type": "SCALAR"
    },
    {
      "bufferView": 5,
      "componentType": 5126,
      "count": 9,
      "max": [
        1.0,
        1.5767076533279578e-08,
        1.2241251567957079e-08,
        0.0,
        8.729224987291673e-08,
        1.0,
        1.0,
        0.0,
        3.258413983076025e-07,
        1.0,
        1.0,
        0.0,
        2.2272512723020554e-08,
        0.22084596753120422,
        0.19784396886825562,
        1.0
      ],
      "min": [
        -1.0,
        -3.2561138141318224e-07,
        -1.0000001192092896,
        0.0,
        -0.7830315232276917,
        -0.6348252296447754,
        -0.999294102191925,
        0.0,
        -0.6348251700401306,
        -0.999294102191925,
        -0.07528425753116608,
        0.0,
        -0.7461967468261719,
        -1.032143235206604,
        -0.4814976453781128,
        1.0
      ],
      "type": "MAT4"
    },
    {
      "bufferView": 0,
      "componentType": 5123,
      "count": 2905,
      "type": "VEC4"
    },
    {
      "bufferView": 4,
      "componentType": 5126,
      "count": 2905,
      "max": [
        1.0,
        0.49844518303871155,
        0.2782953679561615,
        0.22035686671733856
      ],
      "min": [
        0.2895556092262268,
        0.0,
        0.0,
        0.0
      ],
      "type": "VEC4"
    },
    {
      "bufferView": 6,
      "componentType": 5126,
      "count": 60,
      "max": [
        2.5
      ],
      "min": [
        0.0416666679084301
      ],
      "type": "SCALAR"
    },
    {
      "bufferView": 8,
      "componentType": 5126,
      "count": 60,
      "max": [
        -0.04602794721722603,
        0.0004884804948233068,
        0.053870271891355515,
        0.9989367127418518
      ],
      "min": [
        -0.04610336944460869,
        -0.00046017166459932923,
        -0.05717378482222557,
        0.9973025321960449
      ],
      "type": "VEC4"
    },
    {
      "bufferView": 6,
      "byteOffset": 240,
      "componentType": 5126,
      "count": 54,
      "max": [
        2.5
      ],
      "min": [
        0.0416666679084301
      ],
      "type": "SCALAR"
    },
    {
      "bufferView": 7,
      "componentType": 5126,
      "count": 54,
      "max": [
        1.0,
        1.0000001192092896,
        0.9999999403953552
      ],
      "min": [
        0.9999999403953552,
        0.9999999403953552,
        0.9999998807907104
      ],
      "type": "VEC3"
    },
    {
      "bufferView": 6,
      "byteOffset": 456,
      "componentType": 5126,
      "count": 60,
      "max": [
        2.5
      ],
      "min": [
        0.0416666679084301
      ],
      "type": "SCALAR"
    },
    {
      "bufferView": 8,
      "byteOffset": 960,
      "componentType": 5126,
      "count": 60,
      "max": [
        0.6977113485336304,
        0.3528068959712982,
        0.6883407831192017,
        0.42517149448394775
      ],
      "min": [
        0.617530345916748,
        0.057289622724056244,
        0.5737124681472778,
        0.14272572100162506
      ],
      "type": "VEC4"
    },
    {
      "bufferView": 6,
      "byteOffset": 696,
      "componentType": 5126,
      "count": 58,
      "max": [
        2.5
      ],
      "min": [
        0.0416666679084301
      ],
      "type": "SCALAR"
    },
    {
      "bufferView": 7,
      "byteOffset": 648,
      "componentType": 5126,
      "count": 58,
      "max": [
        1.0000001192092896,
        1.0000001192092896,
        1.0
      ],
      "min": [
        0.9999999403953552,
        0.9999999403953552,
        0.9999999403953552
      ],
      "type": "VEC3"
    },
    {
      "bufferView": 6,
      "byteOffset": 928,
      "componentType": 5126,
      "count": 60,
      "max": [
        2.5
      ],
      "min": [
        0.0416666679084301
      ],
      "type": "SCALAR"
    },
    {
      "bufferView": 8,
      "byteOffset": 1920,
      "componentType": 5126,
      "count": 60,
      "max": [
        1.0,
        0.021526698023080826,
        1.6484638365454884e-07,
        6.368868099571046e-08
      ],
      "min": [
        0.9973515868186951,
        -0.07273110002279282,
        1.6023176385715487e-07,
        2.217004180238291e-08
      ],
      "type": "VEC4"
    },
    {
      "bufferView": 6,
      "byteOffset": 1168,
      "componentType": 5126,
      "count": 36,
      "max": [
        2.5
      ],
      "min": [
        0.0416666679084301
      ],
      "type": "SCALAR"
    },
    {
      "bufferView": 7,
      "byteOffset": 1344,
      "componentType": 5126,
      "count": 36,
      "max": [
        1.0,
        1.0,
        1.0
      ],
      "min": [
        0.9999999403953552,
        0.9999999403953552,
        1.0
      ],
      "type": "VEC3"
    },
    {
      "bufferView": 6,
      "byteOffset": 1312,
      "componentType": 5126,
      "count": 58,
      "max": [
        2.5
      ],
      "min": [
        0.0416666679084301
      ],
      "type": "SCALAR"
    },
    {
      "bufferView": 7,
      "byteOffset": 1776,
      "componentType": 5126,
      "count": 58,
      "max": [
        3.7253098383871475e-09,
        1.032143235206604,
        -2.8796404407259077e-16
      ],
      "min": [
        -1.490114875934978e-08,
        1.0321431159973145,
        -5.551117240708151e-16
      ],
      "type": "VEC3"
    },
    {
      "bufferView": 6,
      "byteOffset": 1544,
      "componentType": 5126,
      "count": 60,
      "max": [
        2.5
      ],
      "min": [
        0.0416666679084301
      ],
      "type": "SCALAR"
    },
    {
      "bufferView": 8,
      "byteOffset": 2880,
      "componentType": 5126,
      "count": 60,
      "max": [
        6.806074992482536e-08,
        8.655482552910598e-09,
        0.2540048658847809,
        1.0
      ],
      "min": [
        -8.317007882396865e-08,
        -1.0037949138563818e-08,
        -0.20977768301963806,
        0.9672029614448547
      ],
      "type": "VEC4"
    },
    {
      "bufferView": 6,
      "byteOffset": 1784,
      "componentType": 5126,
      "count": 49,
      "max": [
        2.5
      ],
      "min": [
        0.0416666679084301
      ],
      "type": "SCALAR"
    },
    {
      "bufferView": 7,
      "byteOffset": 2472,
      "componentType": 5126,
      "count": 49,
      "max": [
        1.0000001192092896,
        1.0000001192092896,
        1.0
      ],
      "min": [
        0.9999998807907104,
        0.9999998807907104,
        1.0
      ],
      "type": "VEC3"
    },
    {
      "bufferView": 6,
      "byteOffset": 1980,
      "componentType": 5126,
      "count": 60,
      "max": [
        2.5
      ],
      "min": [
        0.0416666679084301
      ],
      "type": "SCALAR"
    },
    {
      "bufferView": 7,
      "byteOffset": 3060,
      "componentType": 5126,
      "count": 60,
      "max": [
        -0.0023407957050949335,
        0.22224853932857513,
        -0.35251033306121826
      ],
      "min": [
        -0.002340799430385232,
        0.22224844992160797,
        -0.3525104224681854
      ],
      "type": "VEC3"
    },
    {
      "bufferView": 6,
      "byteOffset": 2220,
      "componentType": 5126,
      "count": 60,
      "max": [
        2.5
      ],
      "min": [
        0.0416666679084301
      ],
      "type": "SCALAR"
    },
    {
      "bufferView": 8,
      "byteOffset": 3840,
      "componentType": 5126,
      "count": 60,
      "max": [
        -0.17569950222969055,
        0.6849303841590881,
        -0.16652235388755798,
        0.6872193813323975
      ],
      "min": [
        -0.29704582691192627,
        0.6416881084442139,
        -0.28843623399734497,
        0.645604133605957
      ],
      "type": "VEC4"
    },
    {
      "bufferView": 6,
      "byteOffset": 2460,
      "componentType": 5126,
      "count": 60,
      "max": [
        2.5
      ],
      "min": [
        0.0416666679084301
      ],
      "type": "SCALAR"
    },
    {
      "bufferView": 7,
      "byteOffset": 3780,
      "componentType": 5126,
      "count": 60,
      "max": [
        1.0000001192092896,
        1.0,
        1.0000001192092896
      ],
      "min": [
        0.9999997615814209,
        0.9999997615814209,
        0.9999999403953552
      ],
      "type": "VEC3"
    },
    {
      "bufferView": 6,
      "byteOffset": 2700,
      "componentType": 5126,
      "count": 60,
      "max": [
        2.5
      ],
      "min": [
        0.0416666679084301
      ],
      "type": "SCALAR"
    },
    {
      "bufferView": 7,
      "byteOffset": 4500,
      "componentType": 5126,
      "count": 60,
      "max": [
        0.009226375259459019,
        0.22024627029895782,
        0.4311423599720001
      ],
      "min": [
        0.009226365946233273,
        0.22024618089199066,
        0.43114233016967773
      ],
      "type": "VEC3"
    },
    {
      "bufferView": 6,
      "byteOffset": 2940,
      "componentType": 5126,
      "count": 60,
      "max": [
        2.5
      ],
      "min": [
        0.0416666679084301
      ],
      "type": "SCALAR"
    },
    {
      "bufferView": 8,
      "byteOffset": 4800,
      "componentType": 5126,
      "count": 60,
      "max": [
        0.0376688651740551,
        0.004083773586899042,
        0.10833866894245148,
        0.9992902874946594
      ],
      "min": [
        0.03744681179523468,
        -0.0007465287926606834,
        -0.019800977781414986,
        0.9934001564979553
      ],
      "type": "VEC4"
    },
    {
      "bufferView": 6,
      "byteOffset": 3180,
      "componentType": 5126,
      "count": 59,
      "max": [
        2.5
      ],
      "min": [
        0.0416666679084301
      ],
      "type": "SCALAR"
    },
    {
      "bufferView": 7,
      "byteOffset": 5220,
      "componentType": 5126,
      "count": 59,
      "max": [
        1.0000001192092896,
        1.0000001192092896,
        1.0000001192092896
      ],
      "min": [
        0.9999998807907104,
        0.9999997615814209,
        0.9999998807907104
      ],
      "type": "VEC3"
    },
    {
      "bufferView": 6,
      "byteOffset": 3416,
      "componentType": 5126,
      "count": 60,
      "max": [
        2.5
      ],
      "min": [
        0.0416666679084301
      ],
      "type": "SCALAR"
    },
    {
      "bufferView": 8,
      "byteOffset": 5760,
      "componentType": 5126,
      "count": 60,
      "max": [
        0.7006533145904541,
        0.3980860710144043,
        0.7042579650878906,
        0.3711472451686859
      ],
      "min": [
        0.584403395652771,
        0.09531419724225998,
        0.6018719673156738,
        0.06341049075126648
      ],
      "type": "VEC4"
    },
    {
      "bufferView": 6,
      "byteOffset": 3656,
      "componentType": 5126,
      "count": 56,
      "max": [
        2.5
      ],
      "min": [
        0.0416666679084301
      ],
      "type": "SCALAR"
    },
    {
      "bufferView": 7,
      "byteOffset": 5928,
      "componentType": 5126,
      "count": 56,
      "max": [
        1.0000001192092896,
        1.0,
        0.9999998807907104
      ],
      "min": [
        0.9999998211860657,
        0.9999997615814209,
        0.9999998211860657
      ],
      "type": "VEC3"
    }
  ],
  "animations": [
    {
      "channels": [
        {
          "sampler": 0,
          "target": {
            "node": 9,
            "path": "rotation"
          }
        },
        {
          "sampler": 1,
          "target": {
            "node": 9,
            "path": "scale"
          }
        },
        {
          "sampler": 2,
          "target": {
            "node": 10,
            "path": "rotation"
          }
        },
        {
          "sampler": 3,
          "target": {
            "node": 10,
            "path": "scale"
          }
        },
        {
          "sampler": 4,
          "target": {
            "node": 11,
            "path": "rotation"
          }
        },
        {
          "sampler": 5,
          "target": {
            "node": 11,
            "path": "scale"
          }
        },
        {
          "sampler": 6,
          "target": {
            "node": 12,
            "path": "translation"
          }
        },
        {
          "sampler": 7,
          "target": {
            "node": 12,
            "path": "rotation"
          }
        },
        {
          "sampler": 8,
          "target": {
            "node": 12,
            "path": "scale"
          }
        },
        {
          "sampler": 9,
          "target": {
            "node": 13,
            "path": "translation"
          }
        },
        {
          "sampler": 10,
          "target": {
            "node": 13,
            "path": "rotation"
          }
        },
        {
          "sampler": 11,
          "target": {
            "node": 13,
            "path": "scale"
          }
        },
        {
          "sampler": 12,
          "target": {
            "node": 14,
            "path": "translation"
          }
        },
        {
          "sampler": 13,
          "target": {
            "node": 14,
            "path": "rotation"
          }
        },
        {
          "sampler": 14,
          "target": {
            "node": 14,
            "path": "scale"
          }
        },
        {
          "sampler": 15,
          "target": {
            "node": 15,
            "path": "rotation"
          }
        },
        {
          "sampler": 16,
          "target": {
            "node": 15,
            "path": "scale"
          }
        }
      ],
      "name": "Swim",
      "samplers": [
        {
          "input": 7,
          "interpolation": "LINEAR",
          "output": 8
        },
        {
          "input": 9,
          "interpolation": "LINEAR",
          "output": 10
        },
        {
          "input": 11,
          "interpolation": "LINEAR",
          "output": 12
        },
        {
          "input": 13,
          "interpolation": "LINEAR",
          "output": 14
        },
        {
          "input": 15,
          "interpolation": "LINEAR",
          "output": 16
        },
        {
          "input": 17,
          "interpolation": "LINEAR",
          "output": 18
        },
        {
          "input": 19,
          "interpolation": "LINEAR",
          "output": 20
        },
        {
          "input": 21,
          "interpolation": "LINEAR",
          "output": 22
        },
        {
          "input": 23,
          "interpolation": "LINEAR",
          "output": 24
        },
        {
          "input": 25,
          "interpolation": "LINEAR",
          "output": 26
        },
        {
          "input": 27,
          "interpolation": "LINEAR",
          "output": 28
        },
        {
          "input": 29,
          "interpolation": "LINEAR",
          "output": 30
        },
        {
          "input": 31,
          "interpolation": "LINEAR",
          "output": 32
        },
        {
          "input": 33,
          "interpolation": "LINEAR",
          "output": 34
        },
        {
          "input": 35,
          "interpolation": "LINEAR",
          "output": 36
        },
        {
          "input": 37,
          "interpolation": "LINEAR",
          "output": 38
        },
        {
          "input": 39,
          "interpolation": "LINEAR",
          "output": 40
        }
      ]
    }
  ],
  "asset": {
    "extras": {
      "author": "dhar (https://sketchfab.com/Dharia.Pitman)",
      "license": "CC-BY-4.0 (http://creativecommons.org/licenses/by/4.0/)",
      "source": "https://sketchfab.com/3d-models/low-poly-killifish-aecd87ffb2cb4e7db94962727c58237c",
      "title": "Low Poly Killifish"
    },
    "generator": "Sketchfab-13.28.0",
    "version": "2.0"
  },
  "bufferViews": [
    {
      "buffer": 0,
      "byteLength": 23240,
      "byteStride": 8,
      "name": "shortBufferViews",
      "target": 34962
    },
    {
      "buffer": 0,
      "byteLength": 17784,
      "byteOffset": 23240,
      "name": "floatBufferViews",
      "target": 34963
    },
    {
      "buffer": 0,
      "byteLength": 23240,
      "byteOffset": 41024,
      "byteStride": 8,
      "name": "floatBufferViews",
      "target": 34962
    },
    {
      "buffer": 0,
      "byteLength": 69720,
      "byteOffset": 64264,
      "byteStride": 12,
      "name": "floatBufferViews",
      "target": 34962
    },
    {
      "buffer": 0,
      "byteLength": 46480,
      "byteOffset": 133984,
      "byteStride": 16,
      "name": "floatBufferViews",
      "target": 34962
    },
    {
      "buffer": 0,
      "byteLength": 576,
      "byteOffset": 180464,
      "name": "floatBufferViews"
    },
    {
      "buffer": 0,
      "byteLength": 3880,
      "byteOffset": 181040,
      "name": "floatBufferViews"
    },
    {
      "buffer": 0,
      "byteLength": 6600,
      "byteOffset": 184920,
      "byteStride": 12,
      "name": "floatBufferViews"
    },
    {
      "buffer": 0,
      "byteLength": 6720,
      "byteOffset": 191520,
      "byteStride": 16,
      "name": "floatBufferViews"
    }
  ],
  "buffers": [
    {
      "byteLength": 198240,
      "uri": "scene.bin"
    }
  ],
  "extensionsUsed": [
    "KHR_materials_unlit"
  ],
  "images": [
    {
      "uri": "textures/Killifsh_Texture_baseColor.png"
    }
  ],
  "materials": [
    {
      "doubleSided": true,
      "extensions": {
        "KHR_materials_unlit": {}
      },
      "name": "Killifsh_Texture",
      "pbrMetallicRoughness": {
        "baseColorTexture": {
          "index": 0
        },
        "metallicFactor": 0.0
      }
    }
  ],
  "meshes": [
    {
      "name": "Object_0",
      "primitives": [
        {
          "attributes": {
            "JOINTS_0": 5,
            "NORMAL": 1,
            "POSITION": 0,
            "TEXCOORD_0": 2,
            "WEIGHTS_0": 6
          },
          "indices": 3,
          "material": 0,
          "mode": 4
        }
      ]
    }
  ],
  "nodes": [
    {
      "children": [
        1
      ],
      "matrix": [
        1.0,
        0.0,
        0.0,
        0.0,
        0.0,
        2.220446049250313e-16,
        -1.0,
        0.0,
        0.0,
        1.0,
        2.220446049250313e-16,
        0.0,
        0.0,
        0.0,
        0.0,
        1.0
      ],
      "name": "Sketchfab_model"
    },
    {
      "children": [
        2
      ],
      "name": "root"
    },
    {
      "children": [
        3
      ],
      "matrix": [
        1.0,
        0.0,
        0.0,
        0.0,
        0.0,
        2.220446049250313e-16,
        1.0,
        0.0,
        0.0,
        -1.0,
        2.220446049250313e-16,
        0.0,
        0.0,
        0.0,
        0.0,
        1.0
      ],
      "name": "GLTF_SceneRootNode"
    },
    {
      "children": [
        4
      ],
      "matrix": [
        -0.9999999999999734,
        1.6292068076121266e-07,
        1.6292068076121266e-07,
        0.0,
        -1.6292068076121266e-07,
        1.3322676295501878e-14,
        -0.9999999999999867,
        0.0,
        -1.6292068076121266e-07,
        -0.9999999999999867,
        1.3322676295501878e-14,
        0.0,
        0.0,
        0.0,
        0.0,
        1.0
      ],
      "name": "Rig_9"
    },
    {
      "children": [
        5,
        7,
        6
      ],
      "name": "GLTF_created_0"
    },
    {
      "children": [
        8,
        11,
        15
      ],
      "name": "GLTF_created_0_rootJoint"
    },
    {
      "name": "Killifish_8"
    },
    {
      "mesh": 0,
      "name": "Object_7",
      "skin": 0
    },
    {
      "children": [
        9,
        10
      ],
      "name": "Spine2_2",
      "rotation": [
        0.018787331879138947,
        0.0,
        0.0,
        0.9998235106468201
      ],
      "scale": [
        1.0,
        0.9999999403953552,
        0.9999999403953552
      ],
      "translation": [
        0.0,
        -2.987841529744628e-09,
        -0.06835385411977768
      ]
    },
    {
      "name": "Head_0",
      "rotation": [
        -0.046091727912425995,
        -0.0001919285859912634,
        0.022471223026514053,
        0.9986844062805176
      ],
      "scale": [
        1.0,
        1.0000001192092896,
        1.0
      ],
      "translation": [
        2.842170943040401e-14,
        1.000706434249878,
        -1.862645149230957e-09
      ]
    },
    {
      "name": "Pelvic Fin.L_1",
      "rotation": [
        0.6449285745620728,
        0.2941393256187439,
        0.6744608283042908,
        0.20652300119400024
      ],
      "scale": [
        1.0000001192092896,
        1.0000001192092896,
        0.9999999403953552
      ],
      "translation": [
        -0.19784434139728546,
        0.6628482937812805,
        0.4801456034183502
      ]
    },
    {
      "children": [
        12,
        13,
        14
      ],
      "name": "Spine_6",
      "rotation": [
        0.9999597072601318,
        0.00897675659507513,
        1.6271972924641886e-07,
        4.2092519692005226e-08
      ],
      "scale": [
        0.9999999403953552,
        0.9999999403953552,
        1.0
      ],
      "translation": [
        0.0,
        -2.987841529744628e-09,
        -0.06835385411977768
      ]
    },
    {
      "name": "Tail_3",
      "rotation": [
        -1.1161773727508262e-09,
        -9.830725816728503e-11,
        -0.08772198110818863,
        0.9961450099945068
      ],
      "translation": [
        1.9539925233402755e-14,
        1.032143235206604,
        -5.551115123125783e-16
      ]
    },
    {
      "name": "Anal Fin_4",
      "rotation": [
        -0.2092367261648178,
        0.6754404902458191,
        -0.25627297163009644,
        0.6590328812599182
      ],
      "scale": [
        1.0,
        1.0,
        1.0000001192092896
      ],
      "translation": [
        -0.00234079803340137,
        0.22224846482276917,
        -0.35251036286354065
      ]
    },
    {
      "name": "Dorsal_5",
      "rotation": [
        0.03766758739948273,
        -0.0003113740822300315,
        -0.008257055655121803,
        0.9992562532424927
      ],
      "translation": [
        0.009226372465491295,
        0.22024624049663544,
        0.4311423599720001
      ]
    },
    {
      "name": "Pelvic Fin.R_7",
      "rotation": [
        0.6367921233177185,
        0.30740153789520264,
        0.6871675848960876,
        0.16673612594604492
      ],
      "scale": [
        1.0,
        0.9999999403953552,
        0.9999998807907104
      ],
      "translation": [
        0.24914559721946716,
        0.6443424224853516,
        0.43635478615760803
      ]
    }
  ],
  "samplers": [
    {
      "magFilter": 9729,
      "minFilter": 9987,
      "wrapS": 10497,
      "wrapT": 10497
    }
  ],
  "scene": 0,
  "scenes": [
    {
      "name": "Sketchfab_Scene",
      "nodes": [
        0
      ]
    }
  ],
  "skins": [
    {
      "inverseBindMatrices": 4,
      "joints": [
        5,
        8,
        9,
        10,
        11,
        12,
        13,
        14,
        15
      ],
      "skeleton": 5
    }
  ],
  "textures": [
    {
      "sampler": 0,
      "source": 0
    }
  ]
}
